<svg width="100%" height="auto" viewBox="0 0 97 78" fill="none" xmlns="http://www.w3.org/2000/svg">
<g clip-path="url(#clip0_1_5139)">
<path d="M78.1006 29.7789C78.1006 43.1891 69.2353 54.5259 57.0464 58.2561C61.271 55.4725 64.0592 50.7614 64.312 45.6263L66.7264 44.8323L66.5897 43.2827C66.4566 41.7846 66.1798 40.415 65.7447 39.1013C65.3116 37.7772 64.7202 36.5091 63.9362 35.224L63.6262 34.7167C68.4305 32.9094 71.721 30.5435 72.7106 28.776C72.9274 28.3877 73.0571 27.9986 73.1052 27.5895L73.1479 27.3463L73.1267 27.2373C73.1238 26.8365 73.0318 26.4586 72.8607 26.1478L71.0778 22.1714C71.0463 22.0939 71.0128 22.0189 70.9775 21.9522L70.8884 21.7777L70.8404 21.7305C70.7919 21.6621 70.7446 21.6103 70.7152 21.5792C69.8686 20.4512 68.3733 20.3028 67.1508 20.3028C65.719 20.3028 63.7953 20.544 61.5682 20.8233L60.6067 20.9418C60.0332 19.6198 59.5114 18.2465 59.0531 16.8478C56.5524 9.21709 53.0415 5.50804 48.3213 5.50804C43.6002 5.50804 40.0892 9.21709 37.5886 16.8478C37.129 18.2469 36.6094 19.6198 36.0346 20.941L35.0893 20.8246C32.7039 20.5258 30.8195 20.2891 29.4018 20.2891C28.6136 20.2891 26.5328 20.2891 25.6965 21.8817C25.619 22.016 25.5543 22.1582 25.5025 22.3053L23.8183 26.0769C23.7044 26.2849 23.6206 26.522 23.5697 26.7822L23.5635 26.8009L23.5332 26.994C23.5332 26.994 23.5224 27.1432 23.5204 27.2161L23.4996 27.3475L23.5523 27.6778C23.6053 28.057 23.7309 28.4188 23.9315 28.7773C25.074 30.8154 29.2737 33.6496 35.3276 35.5049C33.5253 38.0093 32.4884 40.955 32.3371 44.0328L29.9161 44.8302L30.0524 46.3772C30.1834 47.872 30.4606 49.2421 30.897 50.5599C31.3309 51.8869 31.9227 53.1555 32.7047 54.4377L33.3719 55.5297C24.5071 50.3718 18.5428 40.7747 18.5428 29.7789C18.5428 13.3323 31.8746 0 48.3217 0C64.7675 0 78.1006 13.3323 78.1006 29.7789ZM35.9231 54.9706L33.6831 55.7087C35.548 56.7634 37.5356 57.6266 39.6222 58.2636C38.2389 57.3668 36.9811 56.2686 35.9231 54.9706Z" fill="#FFD683"/>
<path d="M40.5836 16.2009C40.7283 15.8126 40.8762 15.4421 41.0262 15.0819C40.8758 15.4408 40.7279 15.813 40.5836 16.2009ZM48.3208 8.11971C45.6023 8.11971 43.3478 10.0675 41.4912 14.0376C45.308 13.1135 49.0254 11.8453 52.5479 10.055C51.2881 8.75791 49.8832 8.11971 48.3208 8.11971ZM52.9623 10.5068C53.1281 10.6974 53.2897 10.9046 53.4514 11.1201C53.2939 10.9046 53.1281 10.6974 52.9623 10.5068ZM55.2541 14.2614C55.1215 13.9672 54.9847 13.6854 54.8438 13.4118C52.3573 14.4686 49.8003 15.3099 47.1978 16.0434C44.8314 16.7065 42.4402 17.2784 40.0325 17.7757C39.9164 18.1321 39.8004 18.4719 39.6802 18.8076C44.9475 17.7632 50.2272 16.4164 55.1546 14.307C55.1878 14.2945 55.2168 14.2738 55.2541 14.2614ZM68.644 23.1258C68.2254 22.6244 64.7194 23.0637 61.8931 23.4159C61.4165 23.4739 60.915 23.5361 60.4053 23.6024C61.0642 24.9161 60.6249 26.6691 60.4302 26.3624C60.3431 26.2298 58.3332 23.0388 56.5719 17.6638C56.2943 16.8225 56.0083 16.0351 55.7058 15.3057C55.9503 15.9108 56.1865 16.5614 56.4186 17.2411C55.5276 17.5809 54.6242 17.8834 53.7041 18.1445C51.9221 18.6501 50.1692 19.251 48.383 19.7442C46.6051 20.2332 44.8107 20.6807 43.0121 21.0869C41.4829 21.4308 39.9496 21.7417 38.4121 22.0317C37.2393 24.7338 36.2695 26.2713 36.2115 26.3624C36.0872 26.5613 35.5775 24.9161 36.2364 23.5983C35.7308 23.5361 35.2376 23.4781 34.7652 23.4159C31.9181 23.0595 28.3873 22.6202 27.9936 23.1341L27.9853 23.159V23.1755C27.9894 23.1921 27.9977 23.2128 28.006 23.2377C28.006 23.246 28.0102 23.2543 28.0143 23.2626C28.0267 23.2999 28.0516 23.3537 28.0848 23.4118C28.0931 23.4242 28.1013 23.4408 28.1096 23.4532C28.1511 23.5195 28.2008 23.5941 28.2671 23.6811C28.2795 23.6977 28.2961 23.7143 28.3085 23.735C28.3873 23.8303 28.4785 23.9339 28.5945 24.0583C28.6359 24.0997 28.694 24.1453 28.7354 24.1909C28.8597 24.3111 28.9799 24.4312 29.125 24.5514C29.1374 24.5639 29.154 24.5763 29.1664 24.5887C32.1295 27.0959 39.4357 30.2372 48.2048 30.2372H48.4327C57.0444 30.2372 64.2345 27.212 67.2971 24.7296C67.3675 24.6675 67.4546 24.6053 67.5209 24.5473C67.5872 24.4934 67.6328 24.4395 67.6949 24.3857C67.8193 24.2738 67.9477 24.1577 68.0555 24.05C68.1632 23.9381 68.2461 23.8386 68.3166 23.7474C68.3414 23.7226 68.3621 23.6936 68.3829 23.6687C68.4409 23.5941 68.4865 23.5237 68.5238 23.4656C68.5362 23.4408 68.5528 23.4159 68.5652 23.391C68.5859 23.3537 68.6025 23.3206 68.6149 23.2916C68.6274 23.2584 68.6398 23.2294 68.644 23.2087C68.6481 23.2004 68.6481 23.1921 68.6522 23.188C68.6522 23.1755 68.6564 23.1631 68.6564 23.159L68.644 23.1258Z" fill="#FFD444"/>
<path d="M68.2718 23.6948C65.2092 26.1801 58.0211 29.2041 49.4079 29.2041C49.332 29.2045 49.2574 29.2037 49.1816 29.2041C40.4108 29.2041 33.1046 26.0645 30.144 23.5543C30.1303 23.5427 30.1133 23.5307 30.1001 23.5195C29.9567 23.3964 29.8353 23.2771 29.713 23.1573C29.6678 23.1134 29.6127 23.0674 29.5704 23.0235C29.5265 22.9779 29.5012 22.9439 29.4639 22.9025C28.6877 22.8884 28.1357 22.9489 27.9944 23.1341L27.9836 23.1586C27.9841 23.1627 27.9861 23.1706 27.9874 23.1768C27.9903 23.1913 27.9961 23.2124 28.0052 23.2381C28.0077 23.246 28.0093 23.2522 28.0127 23.2613C28.0276 23.2999 28.0537 23.3521 28.0864 23.4109C28.0943 23.4246 28.1022 23.4387 28.1109 23.4536C28.1498 23.5183 28.2016 23.5941 28.2671 23.6803C28.28 23.6969 28.2957 23.7155 28.3098 23.7329C28.3865 23.8295 28.4768 23.9348 28.5945 24.0566C28.6368 24.1001 28.6919 24.1461 28.7375 24.1905C28.8593 24.3102 28.9807 24.4296 29.1241 24.5523C29.1374 24.5639 29.1544 24.5759 29.1681 24.5875C32.1287 27.0972 39.4353 30.2373 48.2056 30.2373C48.2815 30.2368 48.3561 30.2377 48.4319 30.2373C57.0452 30.2373 64.2337 27.2132 67.2958 24.728C67.3696 24.6679 67.4537 24.607 67.5225 24.5477C67.5859 24.493 67.6344 24.4412 67.6937 24.3873C67.8193 24.2734 67.9481 24.1586 68.0542 24.0479C68.162 23.936 68.2449 23.839 68.3178 23.7487C68.3398 23.7218 68.363 23.6936 68.382 23.6687C68.421 23.6173 68.4475 23.5755 68.4761 23.532C68.4119 23.5858 68.3381 23.6409 68.2718 23.6948Z" fill="#E0B027"/>
<path d="M61.6162 46.5828C61.3033 49.0034 60.3266 51.2595 58.85 53.1368C57.2636 55.1567 55.09 56.7377 52.521 57.5831C47.0975 59.3672 41.1253 57.4899 37.6947 53.0104L39.1328 52.5384L42.4593 51.446L44.1551 51.0125L61.6162 46.5828ZM57.5541 35.1262C54.792 35.7213 51.7377 36.0988 48.463 36.0988H48.1741C44.9035 36.0988 41.853 35.7225 39.0938 35.1278C36.5509 37.5576 34.9836 40.9305 34.914 44.56L58.9524 36.6467C58.528 36.0934 58.0514 35.5965 57.5541 35.1262ZM43.0105 21.0873C44.812 20.6808 46.6047 20.234 48.3851 19.7425C50.1704 19.2493 51.9234 18.6522 53.7037 18.1458C54.6225 17.8847 55.5284 17.5805 56.4207 17.2398C56.0502 16.1524 55.6639 15.1503 55.2566 14.2606C55.2217 14.2755 55.1882 14.2929 55.1534 14.3078C50.228 16.4156 44.9483 17.7645 39.6794 18.8072C39.2517 20.0156 38.8195 21.0927 38.4113 22.0322C39.9487 21.7421 41.4829 21.4325 43.0105 21.0873ZM34.788 32.5738C37.9405 33.6707 41.8327 34.5406 46.2848 34.7391L41.2857 31.0023L34.788 32.5738ZM55.3552 31.0023L50.3569 34.7387C54.8094 34.5402 58.7012 33.6707 61.8541 32.5738L55.3552 31.0023ZM26.3919 27.8067C27.0011 28.6401 28.7897 29.9683 31.5278 31.2538L30.2244 27.2911L26.3919 27.8067ZM66.4173 27.2911L65.1139 31.2547C67.8528 29.97 69.6439 28.6417 70.2585 27.8079L66.4173 27.2911Z" fill="#009245"/>
<path d="M48.3208 34.6297L43.8542 31.2915C43.9893 31.3065 44.1215 31.3247 44.2575 31.3388C44.6868 31.3827 45.1265 31.4125 45.5662 31.4428C45.7821 31.4577 45.993 31.4793 46.2114 31.4909C46.751 31.5186 47.3014 31.5298 47.8546 31.5348C47.9748 31.536 48.0908 31.5443 48.2114 31.5443H48.4207C48.5193 31.5443 48.6134 31.5373 48.7112 31.5365C49.2897 31.5323 49.8633 31.5199 50.4269 31.4905C50.6407 31.4797 50.8467 31.4581 51.0581 31.4436C51.5023 31.4134 51.9466 31.3831 52.3805 31.3384C52.5177 31.3243 52.6511 31.3065 52.787 31.2907L48.3208 34.6297ZM63.2905 43.2065L62.9776 43.3109L58.6299 44.7436L49.3038 47.8173L34.6699 52.6316C34.1262 51.6764 33.6981 50.727 33.3798 49.7444C33.1274 48.9814 32.9351 48.1907 32.8033 47.3619L33.1108 47.2632L38.1224 45.611H38.1278L57.6971 39.1721L59.6618 38.5244H59.673L60.4799 38.2608L60.4745 38.2554L61.4239 37.9425C61.9677 38.8978 62.3958 39.8472 62.714 40.8298C62.9664 41.5927 63.1587 42.3777 63.2905 43.2065ZM47.1969 16.0413C49.7991 15.3107 52.3593 14.4674 54.8442 13.4114C54.1343 12.0173 53.3714 10.8951 52.5487 10.0563C49.0258 11.8449 45.308 13.1118 41.49 14.0355C40.9902 15.1006 40.5161 16.3028 40.0706 17.6617C40.0577 17.7011 40.0445 17.738 40.0316 17.7773C42.4382 17.2771 44.8298 16.7065 47.1969 16.0413ZM28.5311 25.7387C28.5211 25.7309 28.5095 25.723 28.5 25.7155C28.0197 25.3276 27.6264 24.9526 27.3355 24.6041L26.4971 26.4739L29.0487 26.1308C28.8676 25.999 28.6923 25.868 28.5311 25.7387ZM68.0484 25.7856C67.9042 25.8999 67.7521 26.0147 67.593 26.1308L70.1545 26.4752L69.3058 24.6041C69.0173 24.9505 68.6278 25.3227 68.1516 25.7076C68.1197 25.7333 68.0807 25.7599 68.0484 25.7856ZM63.7754 28.3065C63.4919 28.437 63.2035 28.5655 62.9038 28.6919C62.7497 28.7569 62.5926 28.8208 62.4343 28.8846C62.1309 29.0073 61.821 29.1266 61.5023 29.2443C61.3328 29.3073 61.1616 29.3686 60.9876 29.4295C60.6647 29.5431 60.3344 29.6525 59.9975 29.7598C59.8139 29.8183 59.6303 29.8763 59.4422 29.9327C59.1003 30.0354 58.7505 30.1328 58.3954 30.2281C58.2885 30.2567 58.1882 30.2891 58.08 30.3172L63.6075 31.6537L64.8847 27.7681C64.6601 27.8838 64.433 27.9981 64.1956 28.1117C64.0588 28.1776 63.9167 28.2418 63.7754 28.3065ZM38.5617 30.3168C38.4771 30.2949 38.3984 30.2696 38.3147 30.2472C37.9193 30.1415 37.5306 30.0334 37.1514 29.9186C37.0055 29.8746 36.8626 29.8295 36.7192 29.7839C36.3338 29.662 35.9575 29.5373 35.5899 29.4076C35.4631 29.3624 35.3379 29.3177 35.2136 29.2721C34.841 29.1353 34.4801 28.9961 34.1282 28.8527C34.0205 28.8087 33.9131 28.7652 33.8071 28.7209C33.4502 28.5713 33.1071 28.4192 32.7735 28.2642C32.6844 28.2228 32.5941 28.1821 32.5062 28.1403C32.248 28.0172 31.9998 27.8937 31.7569 27.7686L33.0338 31.6537L38.5617 30.3168Z" fill="#DF2536"/>
<path d="M58.8496 53.1368C57.2632 55.1567 55.0895 56.7377 52.5206 57.5831C47.0971 59.3672 41.1249 57.4899 37.6943 53.0104L39.1323 52.5384C42.3876 56.315 47.591 58.0439 52.5645 56.787C55.0125 56.1612 57.1645 54.8716 58.8496 53.1368Z" fill="#00682F"/>
<path d="M58.6299 44.7436L49.3038 47.8173L34.6699 52.6316C34.1262 51.6764 33.6981 50.727 33.3798 49.7444C33.1274 48.981 32.9351 48.1907 32.8033 47.3619L33.1108 47.2633L38.1224 45.611C38.0565 45.6549 37.996 45.6988 37.9359 45.7427C37.3317 46.1597 36.7556 46.6209 36.1406 47.0324C35.7565 47.2906 35.2405 47.5044 35.1746 48.0262C35.0482 49.0361 36.4374 49.2118 37.1398 49.2723C38.49 49.3876 39.7254 49.3436 41.0424 49.0307C42.4974 48.6793 43.9243 48.2512 45.3735 47.889C46.872 47.5102 48.3979 47.2574 49.9077 46.9284C51.4447 46.5877 52.976 46.1928 54.5019 45.8086C55.8852 45.4626 57.2466 45.073 58.6299 44.7436Z" fill="#A80F29"/>
<path d="M71.8184 27.3442C71.8346 27.069 71.7716 26.8606 71.6961 26.7445L69.9021 22.7408C69.8955 22.7222 69.886 22.7089 69.8785 22.6915C69.859 22.6459 69.842 22.5937 69.8201 22.5585C69.8172 22.5531 69.8118 22.5502 69.8093 22.5452C69.8039 22.5357 69.8002 22.5229 69.7944 22.5137C69.7728 22.4785 69.7405 22.4549 69.7136 22.4255C68.9137 21.2332 66.324 21.5436 61.7306 22.1196C61.121 22.1963 60.4745 22.2763 59.8085 22.3567C59.189 21.0094 58.4791 19.2908 57.8119 17.2548C55.5089 10.2295 52.4054 6.81471 48.3208 6.81471C44.2363 6.81471 41.1327 10.2295 38.8298 17.2548C38.1626 19.2904 37.4527 21.009 36.8331 22.3558C36.1734 22.2763 35.5323 22.1967 34.9268 22.1209C30.1399 21.5208 27.5017 21.1905 26.8407 22.5133C26.7955 22.5883 26.7536 22.6766 26.723 22.7785L24.9845 26.6683C24.9169 26.7785 24.8668 26.9277 24.8399 27.098L24.839 27.1055C24.8287 27.1739 24.8225 27.2435 24.8249 27.3218C24.8258 27.3347 24.8208 27.3459 24.8225 27.3587C24.8241 27.3707 24.8316 27.3803 24.8341 27.3923C24.8519 27.6086 24.9103 27.8515 25.0711 28.1386C26.1403 30.0466 30.8324 33.0669 37.606 34.7863C35.071 37.502 33.5816 41.1265 33.6251 44.9844L31.3081 45.7469L31.3537 46.2628C31.4755 47.6545 31.7325 48.9284 32.139 50.1547C32.5402 51.3822 33.0897 52.5603 33.8203 53.7568L34.0901 54.199L36.3951 53.4402C39.1958 57.3369 43.6968 59.5582 48.3544 59.5582C49.8799 59.5582 51.4228 59.3204 52.9263 58.826L52.9275 58.8255C59.0224 56.8119 63.1065 51.0382 63.0236 44.6752L65.3336 43.9147L65.288 43.3988C65.1641 42.0026 64.9071 40.7291 64.5027 39.507C64.1015 38.2791 63.5512 37.1009 62.8214 35.9053L62.5507 35.4623L60.2408 36.2227C59.8711 35.7126 59.472 35.2335 59.0468 34.7826C65.8155 33.0628 70.503 30.045 71.5706 28.1386C71.7372 27.8407 71.7968 27.59 71.8143 27.374C71.8151 27.3682 71.8188 27.3641 71.8192 27.3587C71.8201 27.3537 71.818 27.3492 71.8184 27.3442ZM27.3355 24.6041C27.6264 24.953 28.0197 25.3281 28.5004 25.7155C28.51 25.7234 28.5216 25.7313 28.5311 25.7392C28.6923 25.868 28.8676 25.9994 29.0487 26.1308L26.4971 26.4739L27.3355 24.6041ZM44.2575 31.3388C44.6872 31.3831 45.1265 31.413 45.5662 31.4432C45.7821 31.4581 45.993 31.4797 46.2114 31.4913C46.7514 31.5191 47.3014 31.5302 47.855 31.5352C47.9748 31.536 48.0908 31.5448 48.2114 31.5448H48.4211C48.5193 31.5448 48.6134 31.5377 48.7116 31.5369C49.2902 31.5327 49.8637 31.5199 50.4273 31.4909C50.6408 31.4797 50.8467 31.4586 51.0581 31.444C51.5028 31.4138 51.9466 31.3835 52.3805 31.3388C52.5177 31.3247 52.6511 31.3065 52.7874 31.2911L48.3208 34.6301L43.8542 31.2915C43.9893 31.3069 44.1215 31.3251 44.2575 31.3388ZM32.5062 28.1407C32.5941 28.1822 32.6844 28.2232 32.7739 28.2646C33.1075 28.4196 33.4507 28.5717 33.8071 28.7213C33.9131 28.7657 34.0205 28.8092 34.1282 28.8531C34.4801 28.9961 34.8414 29.1357 35.2136 29.2721C35.3383 29.3181 35.4635 29.3628 35.5903 29.4076C35.9575 29.5377 36.3338 29.6625 36.7196 29.7843C36.863 29.8295 37.0055 29.8746 37.1514 29.919C37.531 30.0334 37.9193 30.1419 38.3147 30.2472C38.3988 30.2696 38.4771 30.2953 38.5617 30.3172L33.0338 31.6542L31.7569 27.769C31.9998 27.8941 32.248 28.0176 32.5062 28.1407ZM41.2857 31.0023L46.2848 34.7391C41.8323 34.5406 37.9405 33.6707 34.788 32.5738L41.2857 31.0023ZM55.3552 31.0023L61.8541 32.5738C58.7012 33.6707 54.8094 34.5402 50.3569 34.7387L55.3552 31.0023ZM58.0804 30.3177C58.1882 30.2895 58.2889 30.2572 58.3954 30.2286C58.7505 30.1332 59.1003 30.0359 59.4426 29.9331C59.6303 29.8763 59.8139 29.8187 59.9979 29.7598C60.3348 29.6529 60.6647 29.5435 60.9876 29.43C61.1616 29.3691 61.3328 29.3073 61.5027 29.2447C61.8214 29.127 62.1309 29.0073 62.4343 28.885C62.5926 28.8208 62.7497 28.7574 62.9038 28.6923C63.2035 28.5655 63.4923 28.437 63.7758 28.3069C63.9167 28.2422 64.0588 28.1776 64.1956 28.1121C64.433 27.9982 64.6606 27.8838 64.8852 27.7686L63.6075 31.6542L58.0804 30.3177ZM68.0484 25.786C68.0812 25.7603 68.1197 25.7338 68.1516 25.7077C68.6278 25.3231 69.0173 24.9509 69.3058 24.6041L70.1549 26.4756L67.593 26.1308C67.7521 26.0152 67.9042 25.9 68.0484 25.786ZM34.7644 23.4172C35.236 23.4764 35.7308 23.5378 36.2364 23.5999C35.577 24.9157 36.0868 26.5593 36.2115 26.3641C36.2965 26.2307 38.3085 23.0371 40.071 17.6621C42.175 11.242 44.8733 8.12138 48.3208 8.12138C51.7684 8.12138 54.4667 11.242 56.5707 17.6621C58.3332 23.0371 60.3444 26.2307 60.4289 26.3637C60.6233 26.6687 61.0642 24.9161 60.4053 23.6003C60.9163 23.5378 61.4165 23.4756 61.8927 23.4159C64.7202 23.062 68.227 22.6223 68.6431 23.1254L68.6576 23.1577C68.6564 23.1648 68.6543 23.1756 68.6514 23.1872C68.6502 23.1926 68.6473 23.2013 68.6452 23.2087C68.6386 23.2307 68.6278 23.2593 68.6133 23.2933C68.6013 23.3214 68.5843 23.355 68.5648 23.3919C68.5519 23.4151 68.5383 23.4395 68.5221 23.4661C68.4861 23.5249 68.4396 23.5929 68.382 23.6687C68.363 23.694 68.3398 23.7218 68.3182 23.7487C68.2453 23.839 68.1624 23.9364 68.0546 24.0483C67.9481 24.1586 67.8193 24.2734 67.6941 24.3873C67.6348 24.4412 67.5859 24.493 67.5225 24.5477C67.4537 24.607 67.3696 24.6683 67.2962 24.728C64.2337 27.2132 57.0452 30.2373 48.4319 30.2373C48.3565 30.2377 48.2815 30.2368 48.206 30.2373C39.4353 30.2373 32.1287 27.0976 29.1685 24.5875C29.1548 24.5759 29.1378 24.5639 29.1241 24.5527C28.9807 24.4296 28.8597 24.3102 28.7375 24.1909C28.6923 24.1465 28.6372 24.1005 28.5949 24.0566C28.4772 23.9352 28.3869 23.8295 28.3102 23.7334C28.2961 23.716 28.2804 23.6969 28.2675 23.6803C28.2016 23.5941 28.1498 23.5183 28.1113 23.4541C28.1022 23.4387 28.0943 23.425 28.0864 23.4109C28.0537 23.3525 28.028 23.2999 28.0127 23.2613C28.0093 23.2522 28.0077 23.2464 28.0052 23.2386C27.9965 23.2124 27.9903 23.1917 27.9874 23.1768L27.9836 23.1586L27.9948 23.1345C28.3869 22.6194 31.9177 23.0604 34.7644 23.4172ZM26.3919 27.8067L30.2244 27.2912L31.5273 31.2538C28.7897 29.9683 27.0011 28.6401 26.3919 27.8067ZM52.5181 57.5848C47.0962 59.3659 41.1261 57.4895 37.6951 53.0129L44.3855 50.8103L61.7285 45.1016C61.6287 50.7361 57.9416 55.7924 52.5181 57.5848ZM63.2623 39.9152C63.5847 40.8916 63.8064 41.9052 63.9341 42.9997L62.9797 43.3134L49.303 47.8157L34.6724 52.632C34.1249 51.6752 33.7001 50.7274 33.3794 49.7469C33.0557 48.7672 32.8344 47.7531 32.7068 46.6623L33.6608 46.3486L58.2437 38.2612L60.2093 37.6143L60.223 37.6098L61.0253 37.3458L61.024 37.3441L61.9693 37.0312C62.5168 37.9869 62.9415 38.9343 63.2623 39.9152ZM58.9524 36.6467L34.914 44.56C34.9836 40.9305 36.5509 37.5576 39.0934 35.1282C41.853 35.7225 44.9035 36.0988 48.1741 36.0988H48.463C51.7377 36.0988 54.792 35.7213 57.5541 35.1262C58.0514 35.5965 58.5276 36.0934 58.9524 36.6467ZM65.1139 31.2547L66.4173 27.2912L70.2585 27.8079C69.6439 28.6417 67.8524 29.97 65.1139 31.2547ZM32.5004 72.1504L32.5526 73.9386C32.5849 75.0103 32.3127 75.8652 31.7445 76.4802C31.1689 77.101 30.3512 77.416 29.3143 77.4164C28.2758 77.4164 27.4482 77.0865 26.8544 76.4346C26.2576 75.7836 25.9339 74.8515 25.8925 73.6642L25.6103 65.3891C25.5692 64.1968 25.837 63.3212 26.4059 62.7849C26.9741 62.2445 27.776 62.0833 28.8564 62.2864C29.9099 62.4853 30.7528 62.9424 31.3624 63.6461C31.9799 64.3585 32.2961 65.2304 32.328 66.3129L32.3694 67.7128L32.2202 67.7049C31.5514 67.6672 30.8833 67.6249 30.2165 67.5801L30.0922 67.5719L30.0516 66.2892C30.0197 65.2631 29.6542 64.7066 28.9335 64.5889C28.5974 64.5337 28.3558 64.5951 28.1946 64.7749C28.0255 64.9618 27.9476 65.2855 27.9625 65.7376L28.2286 73.7359C28.2443 74.1939 28.3475 74.5428 28.5357 74.7732C28.7192 74.9991 28.9724 75.1126 29.3102 75.1213C29.5966 75.1325 29.8112 75.0542 29.9675 74.8967C30.1966 74.6651 30.3027 74.244 30.2837 73.6456L30.229 71.9017L30.3864 71.9199C31.0512 71.9958 31.7159 72.0683 32.3806 72.1375L32.5004 72.1504ZM5.0957 66.9904C6.03394 66.2325 6.47447 64.7679 6.44131 62.5168L6.41935 60.9888C6.39366 59.2246 6.09527 57.7766 5.5068 56.562C4.91915 55.3498 4.07581 54.4712 2.99998 53.9503C2.06961 53.4998 1.12763 53.0266 0.200993 52.5438L0 52.4393V77.0687L2.32903 77.0848L2.28055 67.2635C2.50392 67.3099 2.72812 67.3555 2.95191 67.4011C3.49065 70.6348 4.05675 73.8598 4.63403 76.987L4.65475 77.0994L7.10853 77.1143L7.07372 76.9481C6.39283 73.7003 5.72768 70.3501 5.0957 66.9904ZM4.1674 61.6892C4.17651 62.5889 4.07581 63.23 3.86694 63.5938C3.67673 63.9246 3.38456 64.0315 2.9718 63.9212C2.73517 63.8574 2.49895 63.7932 2.26314 63.7285L2.2304 57.1194C2.43222 57.2047 2.63405 57.2889 2.83628 57.3726C3.26935 57.5524 3.59716 57.8977 3.81017 58.3979C4.03105 58.918 4.14751 59.6395 4.15579 60.5437L4.1674 61.6892ZM13.1968 58.1177L13.1852 58.0361L13.1077 58.0075C12.2618 57.7 11.4015 57.3734 10.5503 57.0386L10.3808 56.9718L10.363 57.1525C9.81303 62.7683 9.20507 69.0654 8.44959 76.9696L8.4355 77.1184L10.7683 77.1321L11.1139 72.6543C11.7832 72.7152 12.4533 72.7749 13.1234 72.8329C13.3037 74.2428 13.4844 75.641 13.6655 77.0285L13.6808 77.1474L16.0562 77.1586L16.0314 76.9995C15.0434 70.7737 14.0898 64.421 13.1968 58.1177ZM11.8797 62.8906C12.1665 65.2515 12.4587 67.6075 12.75 69.9113C12.2813 69.847 11.8126 69.7815 11.3443 69.7144C11.5246 67.409 11.7028 65.1351 11.8797 62.8906ZM23.9891 61.3145L24.5353 77.1934L22.2729 77.1851L22.2448 77.0857C21.2825 73.7173 20.3434 70.2929 19.4495 66.8939L19.7839 77.1752L17.5701 77.1661L17.0194 59.3614L17.2038 59.4198C17.9472 59.6548 18.7127 59.8877 19.4789 60.1107L19.5539 60.1326L19.5734 60.208C20.3708 63.3166 21.2062 66.4504 22.0612 69.5383L21.7624 60.7476L21.9406 60.7953C22.5887 60.966 23.2381 61.1314 23.8884 61.2901L23.9891 61.3145ZM41.4315 64.0186L41.6271 77.2311L39.2973 77.2291L39.1887 71.5142C38.456 71.4856 37.7233 71.4533 36.9915 71.4177L37.1278 77.2257L34.7971 77.2216L34.4266 63.3319L34.5862 63.3527C35.2865 63.4442 35.9877 63.5292 36.6893 63.6063L36.8087 63.6191L36.9405 69.2378C37.6757 69.2851 38.4117 69.3282 39.1477 69.3655L39.0428 63.8384L39.1949 63.8512C39.8978 63.9113 40.6015 63.9643 41.3051 64.0103L41.4315 64.0186ZM87.0844 66.4562C87.5547 66.0679 87.9115 65.5217 88.1469 64.8301C88.4043 64.0758 88.5452 63.0974 88.5655 61.9208L88.5721 61.5371C88.6015 59.804 88.34 58.5748 87.7938 57.884C87.2373 57.177 86.3952 57.0336 85.292 57.4567C84.3699 57.8081 83.4234 58.1534 82.4785 58.4832L82.389 58.5143L81.8718 77.154L85.0384 77.1379C86.2054 77.1333 87.1063 76.6609 87.7159 75.7338C88.3243 74.8147 88.6479 73.4657 88.6778 71.7264L88.6898 71.0132C88.7143 69.6141 88.5858 68.53 88.3077 67.7894C88.0508 67.1102 87.6405 66.6626 87.0844 66.4562ZM84.2754 74.1835L84.4155 68.5727L85.0918 68.4579C85.5738 68.375 85.9041 68.4869 86.0989 68.8027C86.3111 69.1446 86.4097 69.7579 86.3919 70.6241L86.3682 71.738C86.3517 72.5474 86.2277 73.1582 86.0006 73.5515C85.7839 73.9237 85.4619 74.1168 85.016 74.1412L84.2754 74.1835ZM86.2708 62.91C86.253 63.7227 86.1357 64.3448 85.9211 64.7596C85.7155 65.1624 85.3977 65.4061 84.9493 65.5056L84.4888 65.6071L84.6115 60.6627C84.8224 60.5951 85.033 60.5271 85.2435 60.4579C85.747 60.293 85.9406 60.4836 86.0408 60.6428C86.2203 60.9304 86.3023 61.4733 86.2845 62.2569L86.2708 62.91ZM80.3637 59.3398L80.5486 59.281L79.9994 77.1652L77.6688 77.1748L78.0106 66.6473C77.4437 69.3609 76.8619 72.0716 76.2784 74.7243L76.2556 74.8275L74.8064 74.8884L74.7869 74.7678C74.3836 72.2386 73.9754 69.7434 73.5706 67.3344L73.2311 77.1918L71.0169 77.1996L71.5478 61.7302L71.651 61.7066C72.5474 61.5048 73.4607 61.2864 74.365 61.0568L74.5105 61.0199L74.5345 61.1678C74.9381 63.6374 75.3488 66.2184 75.7562 68.8499C76.3468 66.0373 76.9361 63.1579 77.51 60.2826L77.5262 60.2006L77.6066 60.1778C78.5204 59.9138 79.4487 59.632 80.3637 59.3398ZM96.4154 70.622V71.8362C96.4154 73.6066 96.1332 74.9908 95.5754 75.9498C95.0122 76.9228 94.1796 77.4164 93.1025 77.4164H93.0976C92.0391 77.4151 91.2132 76.9651 90.643 76.0795C90.0868 75.215 89.8274 74.0372 89.8494 72.4773L89.8722 70.9382L89.9708 70.9104C90.6235 70.7281 91.275 70.5399 91.926 70.3464L92.1046 70.2933L92.086 72.0679C92.0769 72.9224 92.2178 73.4943 92.5041 73.7666C92.6521 73.9075 92.8402 73.9709 93.076 73.9547C93.7569 73.9149 94.1059 73.1968 94.1125 71.8201L94.1162 71.0542C94.1204 70.319 93.9985 69.6361 93.7557 69.0236C93.5025 68.3878 93.0549 67.6705 92.4266 66.8934C91.5 65.7463 90.8796 64.7459 90.5307 63.8363C90.1705 62.8931 90.0039 61.8098 90.0222 60.5234L90.0292 60.0655C90.0512 58.5238 90.3226 57.2383 90.8589 56.1351C91.3943 55.0353 92.1502 54.2421 93.1042 53.7767C94.1112 53.2843 94.8899 53.4058 95.4195 54.1356C95.9343 54.843 96.1945 56.0933 96.1937 57.8517L96.1929 58.5524L96.1245 58.5918C95.5053 58.9474 94.8676 59.3034 94.2273 59.649L94.0238 59.7596L94.0292 58.6656C94.0329 58.0307 93.955 57.5844 93.7992 57.3382C93.6662 57.1285 93.4892 57.0841 93.2298 57.1927C92.9434 57.3129 92.7163 57.5591 92.5539 57.925C92.3856 58.3075 92.2965 58.8119 92.2903 59.4227L92.2874 59.7095C92.2812 60.3751 92.3881 60.9714 92.6139 61.5329C92.8348 62.0816 93.2517 62.7223 93.8895 63.4898C94.7934 64.5926 95.4494 65.7107 95.8402 66.8155C96.2219 67.8889 96.4154 69.1694 96.4154 70.622ZM46.5127 64.0418C45.3959 64.0389 44.5331 64.3195 43.9164 64.8955C43.2902 65.4786 42.9777 66.3 42.9881 67.3361L43.0527 74.0385C43.0623 75.0741 43.3814 75.9054 44.0009 76.5096C44.618 77.1114 45.4709 77.4164 46.5368 77.4164C47.6014 77.4164 48.4535 77.1126 49.0693 76.5121C49.6872 75.9096 50.0034 75.082 50.0088 74.0521L50.0477 67.3779C50.0535 66.3448 49.7382 65.5226 49.1111 64.9337C48.4899 64.3502 47.6159 64.0505 46.5127 64.0418ZM47.6702 67.4198L47.6632 74.0409C47.6627 74.4777 47.5658 74.8118 47.3739 75.0339C47.1857 75.2523 46.9118 75.3588 46.5359 75.3588H46.5335C46.1563 75.358 45.8807 75.251 45.6914 75.031C45.4991 74.808 45.4004 74.4732 45.3979 74.0351L45.3652 67.4032C45.3631 66.9672 45.4601 66.6348 45.6545 66.4156C45.8422 66.203 46.119 66.0994 46.5003 66.0994H46.514C46.9023 66.1019 47.1849 66.2097 47.3776 66.4289C47.572 66.6481 47.6706 66.9817 47.6702 67.4198ZM59.2362 70.174C59.6602 69.9564 59.988 69.646 60.2126 69.2478C60.482 68.7695 60.6278 68.1363 60.6461 67.3659L60.6519 67.1181C60.6788 65.9863 60.3933 65.1367 59.8027 64.593C59.2138 64.0501 58.3693 63.8297 57.218 63.9192C56.2342 63.9954 55.2421 64.0576 54.2694 64.1048L54.1401 64.111L53.9922 77.2328L57.1575 77.2299C58.305 77.2291 59.1985 76.9241 59.8135 76.3248C60.4335 75.7214 60.7621 74.8408 60.7903 73.7069L60.8011 73.2486C60.8234 72.336 60.6854 71.6149 60.3916 71.106C60.1401 70.6725 59.7526 70.3601 59.2362 70.174ZM56.4464 69.3311L56.4977 66.0634C56.7074 66.0505 56.9171 66.0373 57.1268 66.0232C57.5495 65.9967 57.8425 66.0791 58.0203 66.2797C58.2027 66.4869 58.2901 66.8462 58.2797 67.3464L58.271 67.7778C58.2607 68.2946 58.1509 68.6788 57.9445 68.9208C57.7431 69.1582 57.4091 69.2888 56.9379 69.3099L56.4464 69.3311ZM56.3552 75.1383L56.4136 71.4247L57.0887 71.4015C57.5935 71.3779 57.9569 71.4889 58.1625 71.7152C58.3738 71.946 58.4753 72.3426 58.4637 72.8938L58.4484 73.6273C58.4389 74.1412 58.3241 74.525 58.1082 74.767C57.8939 75.0053 57.5674 75.1238 57.1103 75.1292L56.3552 75.1383ZM66.15 62.6345C65.0663 62.8168 64.1943 63.2756 63.5582 63.9971C62.9121 64.7298 62.5843 65.6195 62.5549 66.7182L62.3638 73.8341C62.3348 74.9232 62.6216 75.8001 63.2167 76.4404C63.8185 77.0873 64.6622 77.416 65.7248 77.4164C66.7998 77.4164 67.6634 77.0695 68.2917 76.3853C68.9224 75.6994 69.2623 74.7496 69.302 73.5627L69.5594 65.8682C69.5992 64.6755 69.3141 63.7812 68.7132 63.2089C68.1093 62.6328 67.2706 62.4455 66.15 62.6345ZM67.2034 66.1835L66.9643 73.6319C66.9481 74.1338 66.8375 74.5192 66.6336 74.779C66.4368 75.0318 66.1587 75.1586 65.7828 75.1673C65.4015 75.1818 65.1429 75.0658 64.9635 74.8329C64.7783 74.5921 64.6912 74.227 64.7061 73.7479L64.9192 66.5176C64.9345 66.0261 65.0435 65.6506 65.2523 65.3709C65.4579 65.0965 65.7455 64.9361 66.1317 64.8798C66.2109 64.8686 66.2855 64.8628 66.3555 64.8628C66.6166 64.8628 66.8122 64.9436 66.9494 65.1073C67.1342 65.3265 67.22 65.6887 67.2034 66.1835Z" fill="#352B23"/>
</g>
<defs>
<clipPath id="clip0_1_5139">
<rect width="96.4154" height="77.4164" fill="white"/>
</clipPath>
</defs>
</svg>
