<svg width="25" height="24" viewBox="0 0 25 24" fill="none" xmlns="http://www.w3.org/2000/svg">
<path d="M13.5329 0.675829L16.3422 6.85486C16.5075 7.21799 16.8509 7.46753 17.2472 7.5122L23.9923 8.27485C24.9598 8.38398 25.3491 9.58188 24.6305 10.2392L19.6219 14.8202C19.3277 15.0895 19.1962 15.4935 19.276 15.8841L20.6354 22.5347C20.83 23.4888 19.8115 24.2285 18.9646 23.7486L13.06 20.4006C12.7128 20.204 12.2878 20.204 11.9406 20.4006L6.03604 23.7486C5.18915 24.2285 4.17059 23.4888 4.36524 22.5347L5.7246 15.8841C5.80437 15.4935 5.6729 15.0895 5.3787 14.8202L0.370145 10.2392C-0.348463 9.58188 0.0408363 8.38398 1.00834 8.27485L7.75342 7.5122C8.14974 7.46753 8.49308 7.21799 8.65838 6.85486L11.4677 0.675829C11.8704 -0.210628 13.1296 -0.210628 13.5329 0.675829Z" fill="#FFD444"/>
</svg>
